<svg width="1020" height="1020" viewBox="189 199 1020 1020" fill="none" xmlns="http://www.w3.org/2000/svg">
<path d="M432.21 956.16C437.646 941.934 456.5 938.67 467.442 949.263C587.209 1065.2 777.455 1075.94 910.069 968.215C1042.01 861.031 1070.86 673.98 983.547 533.238C975.557 520.359 982.638 502.722 997.604 500.328L1132.52 478.746C1141.02 477.387 1149.48 481.616 1153.24 489.361C1253.03 695.101 1202.42 949.75 1017.26 1100.16C831.364 1251.17 570.424 1247.92 389.406 1106.44C382.654 1101.17 380.284 1092.06 383.343 1084.05L432.21 956.16ZM1080.38 378.922C1083.86 382.944 1087.29 387.034 1090.67 391.191C1094.04 395.349 1097.34 399.544 1100.57 403.774L1080.38 378.922ZM381.693 317.782C566.6 167.574 825.758 169.999 1006.65 309.261C1013.49 314.52 1015.9 323.682 1012.83 331.736L964.095 459.276C958.694 473.409 940.029 476.744 929.052 466.332C809.153 352.603 620.593 342.737 488.882 449.732C356.501 557.271 327.901 745.209 416.277 886.108C424.356 898.988 417.29 916.722 402.277 919.124L267.181 940.734C258.706 942.09 250.266 937.889 246.493 930.18C145.662 724.163 196.054 468.586 381.693 317.782Z" fill="url(#paint0_linear_102_48)"/>
<path d="M1017.1 471.072C1001.89 473.504 989.758 458.566 995.253 444.184L1047.49 307.466C1052.99 293.084 1071.99 290.044 1081.7 301.994L1173.98 415.594C1183.69 427.544 1176.82 445.521 1161.62 447.953L1017.1 471.072Z" fill="url(#paint1_linear_102_48)"/>
<path d="M229.163 973.727C213.958 976.143 207.07 994.113 216.764 1006.07L308.924 1119.77C318.618 1131.73 337.625 1128.71 343.136 1114.34L395.522 977.675C401.033 963.299 388.914 948.348 373.709 950.764L229.163 973.727Z" fill="url(#paint2_linear_102_48)"/>
<defs>
<linearGradient id="paint0_linear_102_48" x1="386.442" y1="313.924" x2="1022.01" y2="1096.31" gradientUnits="userSpaceOnUse">
<stop stop-color="#00539F"/>
<stop offset="1" stop-color="#321E53"/>
</linearGradient>
<linearGradient id="paint1_linear_102_48" x1="1001.02" y1="301.41" x2="1158.02" y2="494.677" gradientUnits="userSpaceOnUse">
<stop stop-color="#00539F"/>
<stop offset="1" stop-color="#321E53"/>
</linearGradient>
<linearGradient id="paint2_linear_102_48" x1="266.641" y1="1139.98" x2="355.765" y2="907.473" gradientUnits="userSpaceOnUse">
<stop stop-color="#321E53"/>
<stop offset="1" stop-color="#00539F"/>
</linearGradient>
</defs>
</svg>
