<svg width="803" height="590" viewBox="0 0 803 590" fill="none" xmlns="http://www.w3.org/2000/svg">
<path d="M67.2378 84.21H67.2376C30.1033 84.21 0 109.344 0 140.349V449.118C0 480.123 30.1033 505.257 67.2378 505.257C104.372 505.257 134.475 480.123 134.475 449.118V140.349C134.475 109.344 104.372 84.21 67.2378 84.21Z" fill="white"/>
<path d="M289.886 168.419H289.886C252.752 168.419 222.648 193.554 222.648 224.559V364.908C222.648 395.913 252.752 421.047 289.886 421.047H289.886C327.021 421.047 357.124 395.913 357.124 364.908V224.559C357.124 193.554 327.021 168.419 289.886 168.419Z" fill="white"/>
<path d="M512.533 0H512.533C475.398 0 445.295 25.1344 445.295 56.1393V533.328C445.295 564.332 475.398 589.467 512.533 589.467C549.667 589.467 579.77 564.332 579.77 533.328V56.1393C579.77 25.1344 549.667 0 512.533 0Z" fill="white"/>
<path d="M735.181 84.21H735.181C698.047 84.21 667.943 109.344 667.943 140.349V449.118C667.943 480.123 698.047 505.257 735.181 505.257C772.315 505.257 802.419 480.123 802.419 449.118V140.349C802.419 109.344 772.315 84.21 735.181 84.21Z" fill="white"/>
</svg>
